HIERARCHY
ROOT Hips
{
    OFFSET 0.000000 0.000000 0.000000
    CHANNELS 6 Xposition Yposition Zposition Zrotation Xrotation Yrotation
    JOINT Spine
    {
        OFFSET -0.000000 0.068826 0.000000
        CHANNELS 3 Zrotation Xrotation Yrotation
        JOINT Spine1
        {
            OFFSET -0.000000 0.191010 0.000000
            CHANNELS 3 Zrotation Xrotation Yrotation
            JOINT Neck
            {
                OFFSET -0.000000 0.207797 0.000000
                CHANNELS 3 Zrotation Xrotation Yrotation
                JOINT Head
                {
                    OFFSET -0.000000 0.091069 0.016787
                    CHANNELS 3 Zrotation Xrotation Yrotation
                    End Site
                    {
                        OFFSET -0.000000 0.167869 0.000000
                    }
                }
            }
            JOINT LeftShoulder
            {
                OFFSET 0.034161 0.168574 -0.000928
                CHANNELS 3 Zrotation Xrotation Yrotation
                JOINT LeftArm
                {
                    OFFSET 0.118845 0.000000 0.000000
                    CHANNELS 3 Zrotation Xrotation Yrotation
                    JOINT LeftForeArm
                    {
                        OFFSET 0.267134 0.000000 0.000000
                        CHANNELS 3 Zrotation Xrotation Yrotation
                        JOINT LeftHand
                        {
                            OFFSET 0.227513 0.000000 0.000000
                            CHANNELS 3 Zrotation Xrotation Yrotation
                            End Site
                            {
                                OFFSET 0.000000 -0.125902 0.000000
                            }
                        }
                    }
                }
            }
            JOINT RightShoulder
            {
                OFFSET -0.032780 0.168574 -0.000928
                CHANNELS 3 Zrotation Xrotation Yrotation
                JOINT RightArm
                {
                    OFFSET -0.118845 0.000000 0.000000
                    CHANNELS 3 Zrotation Xrotation Yrotation
                    JOINT RightForeArm
                    {
                        OFFSET -0.267134 0.000000 0.000000
                        CHANNELS 3 Zrotation Xrotation Yrotation
                        JOINT RightHand
                        {
                            OFFSET -0.227513 0.000000 0.000000
                            CHANNELS 3 Zrotation Xrotation Yrotation
                            End Site
                            {
                                OFFSET -0.000000 -0.125902 0.000000
                            }
                        }
                    }
                }
            }
        }
    }
    JOINT LeftUpLeg
    {
        OFFSET 0.083935 0.000000 0.000000
        CHANNELS 3 Zrotation Xrotation Yrotation
        JOINT LeftLeg
        {
            OFFSET -0.000000 -0.292861 0.000000
            CHANNELS 3 Zrotation Xrotation Yrotation
            JOINT LeftFoot
            {
                OFFSET -0.000000 -0.473303 0.000000
                CHANNELS 3 Zrotation Xrotation Yrotation
                JOINT LeftToeBase
                {
                    OFFSET -0.000000 -0.054557 0.125902
                    CHANNELS 3 Zrotation Xrotation Yrotation
                    End Site
                    {
                        OFFSET -0.000000 0.000000 0.033574
                    }
                }
            }
        }
    }
    JOINT RightUpLeg
    {
        OFFSET -0.083935 0.000000 0.000000
        CHANNELS 3 Zrotation Xrotation Yrotation
        JOINT RightLeg
        {
            OFFSET -0.000000 -0.292861 0.000000
            CHANNELS 3 Zrotation Xrotation Yrotation
            JOINT RightFoot
            {
                OFFSET -0.000000 -0.473303 0.000000
                CHANNELS 3 Zrotation Xrotation Yrotation
                JOINT RightToeBase
                {
                    OFFSET -0.000000 -0.054557 0.125902
                    CHANNELS 3 Zrotation Xrotation Yrotation
                    End Site
                    {
                        OFFSET -0.000000 0.000000 0.033574
                    }
                }
            }
        }
    }
}
MOTION
Frames:    5
Frame Time:    0.010000
0.022541    0.834141    0.075305    0.662192    1.139874    -97.597275    0.427030    -10.171598    -0.682547    2.558563    20.722631    -0.705326    7.716460    -24.149738    13.719950    1.825586    -1.630978    13.272996    0.689024    6.607681    -11.478642    -60.057674    43.656784    -27.317610    5.374557    -4.132914    -15.860134    92.691254    -6.442984    3.536822    0.227190    5.855784    4.007322    56.619034    43.002243    15.494432    0.564180    0.289933    13.381604    -99.347275    -7.234496    -0.368435    2.791161    4.584734    2.761552    1.893265    6.034773    0.622021    -1.732182    -9.800794    35.204529    0.000000    0.000000    0.000000    6.679770    6.185429    9.121330    2.237981    2.557367    -0.143441    -0.905796    -11.493382    -49.345001    0.000000    0.000000    0.000000    
0.022170    0.834193    0.076970    0.756469    1.243634    -97.796288    0.506221    -10.350333    -0.612868    2.527121    20.830313    -0.681363    7.716949    -24.312630    13.746614    1.862946    -1.774749    13.286359    0.750860    6.849850    -11.353727    -60.506195    43.321888    -26.982922    5.155985    -4.599669    -15.880542    92.651878    -6.481250    4.032190    0.391422    5.777074    4.160731    56.567253    43.045063    16.016460    0.410693    -0.035687    13.357103    -98.501419    -7.076577    -0.610588    2.776584    4.702830    2.789652    1.791196    5.764173    0.849162    -1.615731    -9.680943    35.435257    0.000000    0.000000    0.000000    6.684939    6.096219    9.155650    2.243821    2.562995    -0.051327    -0.889260    -11.393544    -49.579433    0.000000    0.000000    0.000000    
0.021686    0.834236    0.078642    0.795664    1.326140    -98.012924    0.243837    -10.250602    -0.433464    3.097540    20.621809    -0.712682    7.593760    -24.497766    13.640213    1.604398    -1.850127    13.203553    0.503642    7.070334    -11.238548    -60.977848    43.166912    -26.577877    4.961346    -4.955935    -15.834010    92.586884    -6.617002    4.417364    0.221446    5.588953    3.963610    56.674809    43.322742    16.456583    0.323061    -0.200841    13.358440    -98.138565    -7.201101    -0.751785    2.669290    4.829929    2.970642    1.834546    5.612920    0.871673    -1.420379    -9.536445    35.107773    0.000000    0.000000    0.000000    6.658859    6.060652    9.222212    2.192126    2.614161    0.017256    -0.859752    -11.398529    -49.568611    0.000000    0.000000    0.000000    
0.021140    0.834148    0.080436    0.823052    1.418395    -98.187622    0.247344    -10.328085    -0.318927    3.210218    20.703457    -0.697862    7.449095    -24.882692    13.610232    1.767290    -1.759026    13.138611    0.464523    7.249717    -11.113753    -61.432823    42.801033    -26.158937    4.622886    -5.180424    -15.847534    92.676643    -6.523482    4.691505    0.414115    5.674326    3.986740    56.258018    43.497715    17.238129    0.188683    -0.208663    13.486412    -97.948669    -6.797929    -0.704000    2.536668    4.979403    3.161039    1.926550    5.437952    0.807535    -1.608448    -9.592673    35.544033    0.000000    0.000000    0.000000    6.627056    6.055570    9.206978    2.153548    2.640715    0.058581    -0.856158    -11.429367    -49.504265    0.000000    0.000000    0.000000    
0.020653    0.834084    0.082309    0.857001    1.467763    -98.369339    0.206258    -10.390814    -0.181158    3.328804    20.722376    -0.673031    7.555272    -25.063391    13.622311    1.530044    -1.845553    13.154629    0.441266    7.317222    -11.013957    -61.983295    42.604580    -25.611759    4.307308    -5.290411    -15.746541    92.524170    -6.576532    4.841774    0.641945    5.928071    3.990746    55.603645    43.682129    18.190172    0.024821    -0.390645    13.743768    -97.360451    -6.803510    -0.831868    2.361044    5.130183    3.310701    2.004887    5.231362    0.817639    -1.571676    -9.437140    35.480690    0.000000    0.000000    0.000000    6.517104    6.038847    9.287614    2.160536    2.654371    0.110013    -0.865375    -11.531510    -49.443451    0.000000    0.000000    0.000000    
